<?xml version="1.0" standalone="no"?><!DOCTYPE svg PUBLIC "-//W3C//DTD SVG 1.1//EN" "http://www.w3.org/Graphics/SVG/1.1/DTD/svg11.dtd"><svg width="100%" height="100%" viewBox="0 0 168 120" version="1.1" xmlns="http://www.w3.org/2000/svg" xmlns:xlink="http://www.w3.org/1999/xlink" xml:space="preserve" style="fill-rule:evenodd;clip-rule:evenodd;stroke-linejoin:round;stroke-miterlimit:1.41421;"><g id="Layer1"><g><g><path d="M164.525,39.51c3.4,-3.4 3.4,-8.92 0,-12.32c-3.4,-3.4 -8.92,-3.4 -12.32,0l-74.33,74.33c-3.4,3.4 -3.4,8.92 0,12.32c3.4,3.4 8.92,3.4 12.32,0l74.33,-74.33Z" style="fill:#fff;"/><path d="M15.795,27.19c-3.4,-3.4 -8.92,-3.4 -12.32,0c-3.4,3.4 -3.4,8.92 0,12.32l74.33,74.33c3.4,3.4 8.92,3.4 12.32,0c3.4,-3.4 3.4,-8.92 0,-12.32l-74.33,-74.33Z" style="fill:#fff;"/></g><g transform="matrix(0.424964,0,0,0.424964,-69.5497,-42.8386)"><path d="M312.449,109.762c-4.55,1.9 -7.7,5.55 -8.65,10c-1.25,5.9 4.1,8.85 8.8,11.5c3.3,1.85 6.45,3.6 6,5.75c-0.95,4.25 -4.75,7.1 -9.45,7.1c-2.35,0 -4.25,-1.05 -5.7,-3.1l-0.05,-0.1c-0.2,-0.3 -0.7,-0.95 -1.6,-0.95c-0.3,0 -0.6,0.05 -0.9,0.15c-0.1,0.05 -2.75,1 -3.2,2c-0.1,0.25 -0.1,0.5 0,0.7c0.95,3.5 5.65,6.55 10.05,6.55c8.4,0 14.65,-4.7 16.25,-12.25c1.1,-5.15 -3.9,-8.05 -8.2,-10.65c-3.55,-2.05 -6.85,-4 -6.35,-6.55c0.25,-1.1 0.8,-2.15 1.5,-3c1.6,-1.9 3.85,-2.95 6.2,-2.95c2.3,0 4.05,0.85 5.7,2.85l0.65,0.8c0.95,1.35 2.5,1.55 3.8,0.6c0.3,-0.25 0.6,-0.45 0.75,-0.6c1.05,-0.7 1.9,-1.3 1.2,-2.45l-0.1,-0.15c-2.15,-3.95 -6.2,-6.5 -10.25,-6.5c-2.15,0 -4.4,0.45 -6.45,1.25Z" style="fill:#fff;fill-rule:nonzero;"/><path d="M346.549,139.112l-0.6,1c-1.8,3 -4.1,4.35 -7.4,4.35c-7.25,0 -6.3,-6 -6.05,-7.2l0.9,-4.35c0.75,-3.55 3.55,-7.1 8.2,-7.1c2.1,0 4.95,0.6 6.25,3.55c0.1,0.2 0.3,0.55 0.75,0.55l0.25,0l1.9,-1l0.1,-0.05c1.25,-0.9 1.7,-2.25 1.1,-3.55l-0.25,-0.35l-0.05,0c-2,-2.8 -4.95,-4.15 -9,-4.15c-6.95,0 -12.85,4.95 -14.4,12.1l-0.9,4.35c-1.9,8.9 3.9,12.05 10,12.05c3.5,0 7.6,-0.55 10.9,-4.7c1.9,-2.35 1.65,-3.1 0.45,-3.95l-2.15,-1.55Z" style="fill:#fff;fill-rule:nonzero;"/><path d="M351.749,146.112c-0.35,1.5 0.7,2.75 2.3,2.75l2.55,0l3.85,-18.1c0.7,-3.15 2.6,-4.9 5.35,-4.9c1.7,0 3.45,0.7 4.8,2c0.25,0.2 0.45,0.3 0.75,0.3c1.1,0 1.95,-1.2 2.65,-2.2l0.1,-0.2c0.35,-0.5 0.95,-1.25 0.4,-1.9c-1.4,-1.95 -4.3,-3.15 -7.6,-3.15c-4.85,0 -10.35,2.8 -11.65,8.95l-3.5,16.45Z" style="fill:#fff;fill-rule:nonzero;"/><path d="M383.799,149.212c2.15,0 4.5,-0.6 6.65,-1.7c4.35,-2.35 7.75,-6.6 8.65,-10.8l0.85,-4.1c0.45,-2.1 0.35,-4.15 -0.4,-6.1c-1.35,-3.6 -5.25,-6.05 -9.65,-6.05l-0.4,0c-2.2,0 -4.55,0.55 -6.7,1.6c-4.4,2.2 -7.6,6.15 -8.55,10.55l-0.85,4.1c-0.45,2.15 -0.3,4.2 0.4,6.15c1.4,3.85 5.1,6.35 9.6,6.35l0.4,0ZM379.949,132.612c0.7,-3.3 4.35,-7 8.45,-7l0.65,0c3.25,0 6.15,2.7 5.2,7l-0.85,4.1c-0.7,3.35 -4.35,7.15 -8.45,7.15l-0.4,0c-2.85,0 -6.35,-2.8 -5.45,-7.15l0.85,-4.1Z" style="fill:#fff;fill-rule:nonzero;"/><path d="M412.599,108.762l-1.95,0c-1.85,0 -3.85,1.4 -4.15,2.9l-6.1,28.65c-0.9,4.25 1.55,8.6 7.75,8.65l1,0c1.75,0 2.75,-1.6 3.05,-2.85c0.6,-2.55 0.35,-2.45 -1.25,-2.45l-1.2,0c-4.05,0 -3.95,-2.8 -3.35,-5.55l6.2,-29.35Z" style="fill:#fff;fill-rule:nonzero;"/><path d="M427.499,108.762l-1.95,0c-1.85,0 -3.85,1.4 -4.15,2.9l-6.1,28.65c-0.9,4.25 1.55,8.6 7.75,8.65l1,0c1.75,0 2.75,-1.6 3.05,-2.85c0.6,-2.55 0.35,-2.45 -1.25,-2.45l-1.2,0c-4.05,0 -3.95,-2.8 -3.35,-5.55l6.2,-29.35Z" style="fill:#fff;fill-rule:nonzero;"/><path d="M310.549,198.812c2.1,0 4.4,-0.6 6.5,-1.7c4.3,-2.25 7.65,-6.4 8.5,-10.55l3.3,-15.5c0.45,-2.2 0.4,-4.3 -0.35,-6.15c-1.35,-3.6 -5.15,-6.05 -9.45,-6.05l-10.5,0c-1.65,0 -3.2,1.25 -3.55,2.8l-7.3,34.4c-0.25,1.2 0.75,2.75 2.35,2.75l10.5,0ZM304.199,193.262l6.2,-29.25l7.55,0c1.25,0 2.15,0.25 3.05,0.9c1.85,1.25 2.6,3.45 2,6.15l-3.3,15.5c-0.25,1.2 -0.75,2.3 -1.55,3.35c-1.8,2.15 -4.05,3.35 -6.4,3.35l-7.55,0Z" style="fill:#fff;fill-rule:nonzero;"/><path d="M337.299,199.212c2.15,0 4.5,-0.6 6.65,-1.7c4.35,-2.35 7.75,-6.6 8.65,-10.8l0.85,-4.1c0.45,-2.1 0.35,-4.15 -0.4,-6.1c-1.35,-3.6 -5.25,-6.05 -9.65,-6.05l-0.4,0c-2.2,0 -4.55,0.55 -6.7,1.6c-4.4,2.2 -7.6,6.15 -8.55,10.55l-0.85,4.1c-0.45,2.15 -0.3,4.2 0.4,6.15c1.4,3.85 5.1,6.35 9.6,6.35l0.4,0ZM333.449,182.612c0.7,-3.3 4.35,-7 8.45,-7l0.65,0c3.25,0 6.15,2.7 5.2,7l-0.85,4.1c-0.7,3.35 -4.35,7.15 -8.45,7.15l-0.4,0c-2.85,0 -6.35,-2.8 -5.45,-7.15l0.85,-4.1Z" style="fill:#fff;fill-rule:nonzero;"/><path d="M394.499,170.762l-11.7,18.1l-3.6,-16.85l0,-0.1c-0.3,-0.8 -1.25,-1.15 -2.15,-1.15l-2.15,0l-11.75,18.1l-3.85,-18.1l-2,0c-2.7,0 -3.4,1.35 -3.6,2.2c-0.05,0.3 -0.05,0.6 0,0.9l4.95,23.75l0,0.1c0.3,0.75 1.1,1.6 2.2,1.6c1.05,0 2.15,-0.55 2.85,-1.45l11.3,-17.75l3.25,17.3c0.15,0.9 1,1.9 2.25,1.9c1.05,0 2.15,-0.55 2.8,-1.45l15.05,-23.65c0.3,-0.45 0.55,-0.85 0.6,-1.2c0.25,-1.25 -0.8,-2.25 -2.25,-2.25l-2.2,0Z" style="fill:#fff;fill-rule:nonzero;"/><path d="M419.949,198.812l3.5,-16.25c0.65,-3.25 0.1,-6.25 -1.6,-8.45c-1.7,-2.1 -4.55,-3.3 -8.2,-3.3c-3.05,0 -6.55,1 -9.1,2.65c-1.05,0.7 -1.5,1.05 -1.75,1.3c-0.2,0.2 -0.85,0.85 -1,1.55l-4.2,19.75c-0.3,1.5 0.7,2.75 2.3,2.75l2.8,0l4.5,-21.15c1.35,-1 3.35,-1.6 5.45,-1.6c4.25,0 6.05,2.3 5.2,6.5l-2.9,13.5c-0.3,1.5 0.7,2.75 2.3,2.75l2.7,0Z" style="fill:#fff;fill-rule:nonzero;"/></g></g></g></svg>